<svg xmlns="http://www.w3.org/2000/svg" xml:space="preserve" width="1500" height="1500" viewBox="0 0 1500 1500" data-version="1" data-id="lg_GbBZOR7ErQLOgfmYiy" x="0" y="0"><rect width="1500" height="1500" id="background" stroke="transparent" fill="#122023"></rect><g id="outer-wrapper" data-padding="20" transform="matrix(1.7889087656529516,0,0,1.7889087656529516,-591.6815742397137,-591.6815742397137)"><g id="inner-wrapper" transform="matrix(0.964221824686941,0,0,0.964221824686941,10,8.246869409660121)"><rect width="85.414" height="438.44" x="323.79546105310203" y="149.25077674719955" fill="none" rx="0" ry="0" transform="translate(637.79 411.93)"></rect><path fill="#fff" d="M1017.352461053102 901.7807767471995H990.1924610531021V630.1807767471995H1017.352461053102Z "></path><path fill="#2ecc40" fill-rule="evenodd" d="M670.117461053102 571.5887767471995L670.344461053102 571.4757767471996L670.457461053102 571.4187767471996L670.627461053102 571.2487767471996L670.741461053102 571.1357767471995Q670.741461053102 571.0217767471995 670.854461053102 570.9657767471996V570.7387767471996L670.911461053102 570.6817767471996V570.5117767471996L670.9674610531019 570.3987767471996V570.1717767471996L671.024461053102 570.0577767471996V569.7177767471997L671.081461053102 569.4347767471996L671.308461053102 569.2647767471997L671.138461053102 569.1507767471996V569.4347767471996L667.9064610531019 571.8727767471996ZM671.364461053102 569.2077767471995C673.576461053102 570.0017767471995 674.256461053102 567.9607767471996 675.334461053102 566.6557767471995L675.617461053102 566.4297767471995L675.900461053102 566.1457767471995ZM747.342461053102 869.7177767471995C799.109461053102 808.2547767471995 831.542461053102 738.2307767471996 838.176461053102 657.3757767471996A164.4 164.4 0 0 0 829.898461053102 586.7847767471995C827.176461053102 579.3007767471995 824.908461053102 571.3047767471995 818.218461053102 566.0327767471995Q806.9914610531021 556.9607767471995 794.006461053102 550.3827767471995A102.06 102.06 0 0 0 734.812461053102 539.6667767471995C714.626461053102 542.1617767471995 697.106461053102 550.6667767471995 680.947461053102 562.5167767471995L680.720461053102 562.6867767471995C680.153461053102 563.0837767471994 679.700461053102 563.4807767471995 680.153461053102 564.3317767471995C681.003461053102 564.8987767471995 681.570461053102 564.3317767471995 682.251461053102 563.9347767471995C694.271461053102 558.2647767471994 706.631461053102 553.4447767471995 719.843461053102 551.6307767471994C747.286461053102 547.8317767471995 770.589461053102 555.1457767471995 788.053461053102 577.4287767471994C802.682461053102 596.0267767471995 808.181461053102 617.9687767471995 810.166461053102 640.9327767471995C812.264461053102 664.7467767471995 810.279461053102 688.3907767471995 804.723461053102 711.5817767471995C784.027461053102 797.7657767471995 741.219461053102 869.0377767471995 665.354461053102 918.5367767471995Q665.241461053102 918.3667767471995 665.354461053102 918.5927767471995C669.664461053102 920.2377767471995 674.029461053102 921.7117767471996 678.225461053102 923.4697767471995C680.777461053102 924.5467767471995 682.7614610531019 924.2627767471995 685.1994610531019 922.9027767471995A243.8 243.8 0 0 0 747.2864610531019 869.7747767471994 " vector-effect="non-scaling-stroke"></path><path fill="#2ecc40" fill-rule="evenodd" d="M712.452461053102 858.3777767471995C755.0924610531019 806.4977767471995 781.457461053102 747.8127767471996 785.596461053102 680.1697767471995C787.296461053102 653.1237767471995 784.008461053102 626.7017767471995 770.116461053102 602.7177767471995C757.076461053102 580.2637767471995 737.6844610531019 567.5067767471995 711.149461053102 566.5427767471995C695.159461053102 565.9757767471995 680.304461053102 570.2277767471995 665.789461053102 576.3527767471995C665.675461053102 572.2697767471996 663.8044610531019 574.4237767471996 662.387461053102 575.4447767471995A266.5 266.5 0 0 0 605.233461053102 630.0467767471995A357.2 357.2 0 0 0 544.281461053102 747.2457767471996C539.6314610531019 762.5547767471995 536.343461053102 778.0907767471996 533.905461053102 793.8527767471995C533.508461053102 796.5747767471995 534.1314610531019 797.3687767471995 536.966461053102 797.4247767471995C548.193461053102 797.5947767471995 548.193461053102 797.7087767471995 549.781461053102 786.6517767471995L550.178461053102 783.3637767471995A385.6 385.6 0 0 1 609.372461053102 640.2527767471995A312 312 0 0 1 657.907461053102 582.5887767471995C659.7224610531019 583.9487767471995 656.6604610531019 584.9137767471994 657.341461053102 586.1607767471995Q657.341461053102 586.2747767471994 657.511461053102 586.4447767471995H658.531461053102L660.7994610531019 585.7647767471994C674.917461053102 581.8517767471994 689.149461053102 580.6607767471994 703.438461053102 584.3467767471994C728.3864610531019 590.7537767471995 743.411461053102 607.8767767471995 752.370461053102 631.0667767471995C762.973461053102 658.4537767471994 762.916461053102 686.7467767471994 758.493461053102 715.2097767471995A283.5 283.5 0 0 1 715.118461053102 826.3417767471994C694.0254610531019 858.6617767471995 668.397461053102 886.4437767471995 633.923461053102 905.0417767471995C633.470461053102 905.3247767471995 632.789461053102 905.6087767471995 633.130461053102 906.4017767471995L633.923461053102 906.8557767471995C637.042461053102 907.9897767471995 640.273461053102 908.9537767471994 643.223461053102 910.4277767471995C646.851461053102 912.1857767471995 649.686461053102 911.5627767471995 653.201461053102 909.5777767471994A221.1 221.1 0 0 0 712.453461053102 858.3777767471994M790.018461053102 876.3517767471994A476.3 476.3 0 0 0 886.6354610531021 691.6797767471994A31.75 31.75 0 0 0 886.1824610531021 671.0407767471994A278 278 0 0 0 867.357461053102 628.6297767471993A380 380 0 0 1 863.218461053102 670.5867767471993A413.9 413.9 0 0 1 811.5084610531021 811.0327767471994C789.7924610531021 848.3417767471993 763.540461053102 881.9647767471994 730.0874610531021 909.6907767471994A244 244 0 0 1 699.1854610531021 931.1237767471994C704.7424610531021 933.2217767471993 709.6184610531021 934.9227767471994 714.3814610531022 936.9637767471994C717.2724610531021 938.2677767471994 719.5414610531021 937.8137767471994 722.2054610531021 936.1697767471994A289.2 289.2 0 0 0 790.0194610531022 876.3517767471994 " vector-effect="non-scaling-stroke"></path><path fill="#2ecc40" fill-rule="evenodd" d="M685.5584610531018 811.8267767471996C684.9354610531019 812.9607767471996 684.1984610531018 814.0387767471996 683.9714610531018 815.2287767471995A147.4 147.4 0 0 1 669.9094610531018 858.3777767471995C670.8734610531019 858.2077767471995 671.4974610531019 858.2647767471996 671.7804610531018 858.0377767471996Q675.7504610531018 853.6717767471996 679.5484610531018 849.0787767471995A266.5 266.5 0 0 0 736.6454610531018 722.4107767471995C740.6144610531018 697.6327767471995 740.2744610531018 672.9117767471995 732.2794610531018 648.8147767471995C721.3364610531019 615.5887767471995 695.7074610531018 592.9647767471995 657.6054610531019 596.0837767471995C648.0794610531018 596.8777767471995 644.6774610531019 599.2587767471996 641.1054610531019 609.1237767471996L641.4454610531018 609.2937767471996L643.8274610531018 609.4637767471995C673.9914610531018 609.7477767471995 694.5174610531018 624.6607767471995 706.7074610531018 651.5927767471995C717.3674610531018 675.2367767471995 718.1614610531018 700.2977767471995 715.0424610531018 725.5297767471995A232.5 232.5 0 0 1 685.5584610531018 811.8267767471996 " vector-effect="non-scaling-stroke"></path><path fill="#2ecc40" fill-rule="evenodd" d="M650.3294610531019 687.9567767471996Q650.6694610531018 687.1627767471996 650.7264610531018 686.5957767471996A5.7 5.7 0 0 0 650.2164610531019 684.3277767471996A73.7 73.7 0 0 0 630.1434610531019 656.5447767471995C627.1954610531019 654.1627767471996 621.8084610531018 653.3127767471996 621.582461053102 649.4567767471996C621.3554610531019 645.9417767471996 624.4174610531019 642.2567767471995 625.7214610531018 638.5707767471995C626.5154610531018 636.2457767471996 627.4214610531019 635.9057767471995 629.7474610531019 636.7557767471995Q649.1374610531019 643.7307767471996 660.4774610531019 660.9107767471995C673.6324610531019 680.7557767471995 676.8074610531019 702.9817767471995 675.7304610531019 726.1717767471995C675.6174610531019 728.7807767471994 675.7304610531019 731.1617767471995 676.6374610531019 733.5427767471995A158.8 158.8 0 0 1 685.1424610531019 770.7387767471995C687.1274610531019 769.6047767471995 687.0704610531019 767.7897767471994 687.5244610531018 766.3727767471995A193 193 0 0 0 694.7814610531019 734.0527767471995C697.7864610531019 710.9197767471995 697.3334610531019 687.9567767471995 688.4884610531019 665.8997767471994C679.8694610531019 644.5237767471995 665.5244610531018 629.0447767471994 642.5044610531019 623.2047767471995C634.2824610531019 621.1067767471994 634.3394610531019 621.1637767471994 629.6344610531019 628.1377767471995A425.3 425.3 0 0 0 592.0984610531019 696.4617767471995A391.2 391.2 0 0 0 563.0114610531019 794.0987767471995C562.6144610531019 796.7637767471995 563.0114610531019 797.5007767471994 565.6194610531019 797.3307767471995A74 74 0 0 1 575.5984610531019 797.3307767471995C578.9434610531018 797.6137767471995 579.8504610531019 796.0827767471995 580.3044610531019 793.0777767471996C583.4794610531019 773.5737767471995 588.5264610531019 754.5217767471995 594.3094610531018 735.6977767471996C599.0724610531018 720.1617767471995 606.5564610531019 705.5897767471995 609.5054610531018 689.4307767471995C610.9224610531019 681.4927767471995 613.5304610531018 673.8947767471996 615.4014610531019 666.0707767471995C616.2514610531018 662.6107767471996 617.3294610531018 661.8747767471995 620.7314610531018 663.8017767471995A113.4 113.4 0 0 1 650.3294610531019 687.9567767471996M900.2054610531019 732.1827767471996C863.8614610531018 817.4027767471996 816.4034610531019 892.9827767471995 738.3274610531018 945.6007767471996C744.3374610531018 947.8687767471996 750.1214610531018 949.9107767471995 755.7914610531019 952.2347767471996C758.0594610531018 953.1987767471996 759.7604610531018 952.8017767471996 761.8014610531019 951.4417767471996A306 306 0 0 0 805.4604610531019 916.5707767471996C845.1504610531018 878.5817767471996 876.2214610531018 834.2987767471996 902.3604610531019 786.2737767471996Q903.7784610531019 783.7797767471995 903.7204610531019 780.8877767471995A346 346 0 0 0 900.2064610531019 732.1827767471996M780.1724610531019 961.1367767471996C787.1464610531019 963.7447767471996 793.3824610531019 965.8427767471997 799.4504610531019 968.4517767471997C802.5114610531019 969.7557767471997 804.6664610531019 969.0747767471997 807.2184610531019 967.3177767471997C835.8514610531018 947.3017767471997 860.3454610531019 922.9207767471996 883.1384610531019 896.7257767471997C884.6704610531019 894.9677767471997 885.4074610531019 892.9267767471997 886.0884610531019 890.8287767471996A329 329 0 0 0 898.3344610531019 844.2217767471997C898.6744610531019 842.4067767471996 899.298461053102 840.4217767471996 898.1084610531019 838.0977767471996C865.3354610531019 885.4427767471997 828.8774610531019 928.5907767471997 780.1724610531019 961.1377767471996M626.4024610531019 601.0347767471995A221 221 0 0 0 593.4584610531018 626.4357767471995A289.2 289.2 0 0 0 528.0274610531019 724.1857767471995Q514.1354610531018 757.6397767471996 509.3164610531019 793.4737767471995C509.20246105310184 794.7777767471995 508.3524610531018 797.0457767471995 509.8834610531019 797.2737767471996Q515.0994610531019 798.1237767471996 520.2034610531018 797.2737767471996C522.5834610531018 796.8197767471995 521.9034610531019 793.8707767471996 522.1304610531018 791.9997767471996C523.8884610531019 778.1647767471995 526.9504610531019 764.6137767471995 530.8624610531018 751.2897767471995Q549.5164610531018 688.3527767471995 591.0204610531018 637.3797767471996Q607.2374610531018 617.8177767471996 626.4014610531019 601.0907767471996 " vector-effect="non-scaling-stroke"></path><path fill="#2ecc40" fill-rule="evenodd" d="M581.532461053102 633.8837767471996L580.625461053102 632.8637767471996A56.7 56.7 0 0 0 566.0544610531019 643.3527767471995A246.65 246.65 0 0 0 488.60146105310196 788.7877767471996C487.24146105310194 798.0867767471996 487.1844610531019 797.9727767471995 495.40546105310193 797.8597767471996C497.78746105310194 797.7467767471995 498.8074610531019 797.1227767471995 498.8074610531019 794.6847767471995Q499.03446105310195 790.6017767471996 499.82746105310196 786.6897767471995A266.5 266.5 0 0 1 568.2084610531019 647.2077767471995Q574.7284610531019 640.4037767471996 581.533461053102 633.8267767471996 " vector-effect="non-scaling-stroke"></path></g><rect width="559" height="461" x="470.5" y="519.5" id="space-saver" fill="transparent" stroke="transparent"></rect></g></svg>